<svg viewBox="0 0 21.7142 19.6445" xmlns="http://www.w3.org/2000/svg" xmlns:xlink="http://www.w3.org/1999/xlink" width="21.714233" height="19.644531" fill="none" customFrame="#000000">
	<g id="Group">
		<path id="Vector" d="M0 1.40315C0 1.03101 0.142985 0.674114 0.397498 0.410973C0.652012 0.147831 0.997206 0 1.35714 1.24625e-15L20.3571 1.24625e-15C20.7171 1.24625e-15 21.0623 0.147831 21.3168 0.410973C21.5713 0.674114 21.7143 1.03101 21.7143 1.40315C21.7143 1.77529 21.5713 2.13218 21.3168 2.39532C21.0623 2.65846 20.7171 2.8063 20.3571 2.8063L1.35714 2.8063C0.997206 2.8063 0.652012 2.65846 0.397498 2.39532C0.142985 2.13218 0 1.77529 0 1.40315Z" fill="rgb(255,255,255)" fill-rule="nonzero" transform="matrix(-1,0,0,1,21.7142,0)" />
		<path id="Vector" d="M0 1.40315C0 1.03101 0.142985 0.674113 0.397498 0.410971C0.652012 0.14783 0.997206 0 1.35714 0L20.3571 0C20.7171 0 21.0623 0.14783 21.3168 0.410971C21.5713 0.674113 21.7143 1.03101 21.7143 1.40315C21.7143 1.77529 21.5713 2.13218 21.3168 2.39532C21.0623 2.65847 20.7171 2.8063 20.3571 2.8063L1.35714 2.8063C0.997206 2.8063 0.652012 2.65847 0.397498 2.39532C0.142985 2.13218 0 1.77529 0 1.40315Z" fill="rgb(255,255,255)" fill-rule="nonzero" transform="matrix(-1,0,0,1,21.7142,16.8381)" />
		<path id="Vector" d="M1.35714 0C0.997206 0 0.652012 0.147831 0.397498 0.410973C0.142985 0.674114 6.02692e-16 1.03101 0 1.40315C6.02692e-16 1.77529 0.142985 2.13218 0.397498 2.39532C0.652012 2.65846 0.997206 2.8063 1.35714 2.8063L12.2143 2.8063C12.5742 2.8063 12.9194 2.65846 13.1739 2.39532C13.4284 2.13218 13.5714 1.77529 13.5714 1.40315C13.5714 1.03101 13.4284 0.674114 13.1739 0.410973C12.9194 0.147831 12.5742 0 12.2143 0L1.35714 0Z" fill="rgb(255,255,255)" fill-rule="nonzero" transform="matrix(-1,0,0,1,21.7142,8.41846)" />
	</g>
</svg>
